<?xml version="1.0" standalone="no"?><!DOCTYPE svg PUBLIC "-//W3C//DTD SVG 1.1//EN" "http://www.w3.org/Graphics/SVG/1.1/DTD/svg11.dtd"><svg t="1587718753419" class="icon" viewBox="0 0 1024 1024" version="1.1" xmlns="http://www.w3.org/2000/svg" p-id="7670" xmlns:xlink="http://www.w3.org/1999/xlink" width="200" height="200"><defs><style type="text/css"></style></defs><path d="M883.84 331.168v346.112a32 32 0 1 0 64 0V331.2a32 32 0 0 0-64 0z" fill="#bfcbd9" p-id="7671"></path><path d="M515.84 64l483.776 258.944L800 429.792v324.096c0 109.696-96.864 197.44-216.192 201.088l-7.808 0.128h-128c-122.88 0-224-89.12-224-201.216V425.696l-192-102.72L515.84 64zM288 459.968v293.92c0 74.816 70.784 137.216 160 137.216h128c89.216 0 160-62.4 160-137.216V464l-220.16 117.888L288 459.968z m227.84-323.392L167.584 322.944l348.192 186.368L864 322.944 515.84 136.576z" fill="#bfcbd9" p-id="7672"></path></svg>