<?xml version="1.0" standalone="no"?><!DOCTYPE svg PUBLIC "-//W3C//DTD SVG 1.1//EN" "http://www.w3.org/Graphics/SVG/1.1/DTD/svg11.dtd"><svg t="1586931225098" class="icon" viewBox="0 0 1024 1024" version="1.1" xmlns="http://www.w3.org/2000/svg" p-id="3553" xmlns:xlink="http://www.w3.org/1999/xlink" width="200" height="200"><defs><style type="text/css"></style></defs><path d="M832 469.333333C810.666667 302.933333 678.4 170.666667 512 170.666667 379.733333 170.666667 268.8 251.733333 221.866667 371.2c-128 4.266667-221.866667 110.933333-221.866667 238.933333C0 742.4 102.4 853.333333 230.4 853.333333h601.6c106.666667 0 192-85.333333 192-192S938.666667 469.333333 832 469.333333z m0 298.666667H230.4C153.6 768 85.333333 699.733333 85.333333 610.133333s68.266667-157.866667 145.066667-157.866666H256c29.866667 0 59.733333 17.066667 76.8 51.2 8.533333 21.333333 34.133333 29.866667 55.466667 21.333333 21.333333-8.533333 29.866667-34.133333 21.333333-55.466667-21.333333-46.933333-59.733333-76.8-98.133333-89.6C354.133333 302.933333 426.666667 256 512 256c128 0 234.666667 110.933333 234.666667 256 0 12.8-4.266667 46.933333-12.8 72.533333-8.533333 21.333333 4.266667 46.933333 25.6 55.466667s46.933333-4.266667 55.466666-25.6c4.266667-17.066667 8.533333-38.4 12.8-55.466667h4.266667c59.733333 0 106.666667 46.933333 106.666667 106.666667S891.733333 768 832 768z" fill="#bfcbd9" p-id="3554"></path></svg>