<?xml version="1.0" standalone="no"?><!DOCTYPE svg PUBLIC "-//W3C//DTD SVG 1.1//EN" "http://www.w3.org/Graphics/SVG/1.1/DTD/svg11.dtd"><svg t="1586931364851" class="icon" viewBox="0 0 1024 1024" version="1.1" xmlns="http://www.w3.org/2000/svg" p-id="4496" xmlns:xlink="http://www.w3.org/1999/xlink" width="200" height="200"><defs><style type="text/css"></style></defs><path d="M536.32 620.16h60.16v24.32h-60.16zM536.32 380.16h60.16v24.32h-60.16z" fill="#bfcbd9" p-id="4497"></path><path d="M656 812.16H584.32V224h71.68v24.32H608v539.52h48v24.32z" fill="#bfcbd9" p-id="4498"></path><path d="M595.84 499.84h60.16v24.32h-60.16z" fill="#bfcbd9" p-id="4499"></path><path d="M332.16 512c-92.8 0-168.32-32-168.32-71.68v119.68c0 39.68 75.52 72.32 168.32 72.32s168.32-32 168.32-71.68V440.32C499.84 480 424.96 512 332.16 512z" fill="#bfcbd9" p-id="4500"></path><path d="M691.84 139.52h168.32v179.84h-168.32zM691.84 703.36h168.32v179.84h-168.32z" fill="#bfcbd9" p-id="4501"></path><path d="M848 332.16H704a24.32 24.32 0 0 1-23.68-23.68v-48.64H704v48h144v-48h24.32v48a24.32 24.32 0 0 1-23.68 24.32zM848 248.32H704a24.32 24.32 0 0 1-23.68-23.68V152.32A24.32 24.32 0 0 1 704 128h144a24.32 24.32 0 0 1 24.32 24.32V224a24.32 24.32 0 0 1-23.68 24.32zM704 152.32V224h144V152.32z" fill="#bfcbd9" p-id="4502"></path><path d="M728.32 176h24.32v24.32h-24.32zM728.32 259.84h24.32v24.32h-24.32zM848 608H704a24.32 24.32 0 0 1-23.68-23.68v-48H704v48h144v-48h24.32v48a24.32 24.32 0 0 1-23.68 24.32zM848 524.16H704a24.32 24.32 0 0 1-23.68-23.68V428.16a24.32 24.32 0 0 1 23.68-24.32h144a24.32 24.32 0 0 1 24.32 24.32v71.68a24.32 24.32 0 0 1-23.68 24.32zM704 428.16v71.68h144V428.16z" fill="#bfcbd9" p-id="4503"></path><path d="M728.32 451.84h24.32v24.32h-24.32zM728.32 536.32h24.32v24.32h-24.32zM848 896H704a24.32 24.32 0 0 1-23.68-23.68v-48H704v48h144v-48h24.32v48a24.32 24.32 0 0 1-23.68 24.32zM848 812.16H704a24.32 24.32 0 0 1-23.68-23.68v-72.32a24.32 24.32 0 0 1 24.32-23.68h144a24.32 24.32 0 0 1 24.32 24.32v72.32a24.32 24.32 0 0 1-23.68 24.32zM704 716.16v72.32h144v-72.32z" fill="#bfcbd9" p-id="4504"></path><path d="M728.32 739.84h24.32v24.32h-24.32zM728.32 824.32h24.32v24.32h-24.32zM332.16 403.84c-102.4 0-179.84-35.84-179.84-83.84s76.8-83.84 179.84-83.84S512 272 512 320 434.56 403.84 332.16 403.84z m0-144c-92.16 0-156.16 31.36-156.16 60.16s64 60.16 156.16 60.16 156.16-32 156.16-60.16-64.64-60.16-156.16-60.16z" fill="#bfcbd9" p-id="4505"></path><path d="M332.16 524.16c-102.4 0-179.84-35.84-179.84-83.84V320h24.32v120.32c0 28.16 64 60.16 156.16 60.16s156.16-31.36 156.16-60.16V320H512v120.32c0 47.36-77.44 83.84-179.84 83.84z" fill="#bfcbd9" p-id="4506"></path><path d="M332.16 643.84c-102.4 0-179.84-35.84-179.84-83.84V440.32h24.32v119.68c0 28.16 64 60.16 156.16 60.16s156.16-31.36 156.16-60.16V440.32H512v119.68c0 48-77.44 83.84-179.84 83.84z" fill="#bfcbd9" p-id="4507"></path><path d="M332.16 764.16c-102.4 0-179.84-35.84-179.84-83.84V560h24.32v120.32c0 28.16 64 60.16 156.16 60.16s156.16-31.36 156.16-60.16V560H512v120.32c0 47.36-77.44 83.84-179.84 83.84zM272 440.32h24.32v24.32h-24.32zM320 440.32h24.32v24.32H320zM368 440.32h24.32v24.32h-24.32z" fill="#bfcbd9" p-id="4508"></path><path d="M272 560h24.32v24.32h-24.32zM320 560h24.32v24.32H320zM368 560h24.32v24.32h-24.32zM272 680.32h24.32v24.32h-24.32zM320 680.32h24.32v24.32H320zM368 680.32h24.32v24.32h-24.32z" fill="#bfcbd9" p-id="4509"></path></svg>