<?xml version="1.0" standalone="no"?><!DOCTYPE svg PUBLIC "-//W3C//DTD SVG 1.1//EN" "http://www.w3.org/Graphics/SVG/1.1/DTD/svg11.dtd"><svg t="1586932448111" class="icon" viewBox="0 0 1024 1024" version="1.1" xmlns="http://www.w3.org/2000/svg" p-id="3006" xmlns:xlink="http://www.w3.org/1999/xlink" width="200" height="200"><defs><style type="text/css"></style></defs><path d="M452.266667 435.2zM657.066667 281.6zM349.866667 281.6z" fill="#bfcbd9" p-id="3007"></path><path d="M426.666667 153.6h-153.6v256h153.6v-102.4h102.4v-51.2h-102.4v-51.2z" fill="#bfcbd9" p-id="3008"></path><path d="M580.266667 307.2v51.2h-102.4v51.2h256V153.6H477.866667v51.2h102.4v51.2z" fill="#bfcbd9" p-id="3009"></path><path d="M785.066667 409.6V102.4H221.866667v307.2H119.466667v409.6c0 56.32 46.08 102.4 102.4 102.4h563.2c56.32 0 102.4-46.08 102.4-102.4V409.6h-102.4zM733.866667 153.6v256H477.866667v-51.2h102.4v-153.6h-102.4V153.6h256zM273.066667 153.6h153.6v102.4h102.4v51.2h-102.4v102.4h-153.6V153.6z m494.933333 716.8H238.933333c-37.546667 0-68.266667-30.72-68.266666-68.266667V460.8h665.6v341.333333c0 37.546667-30.72 68.266667-68.266667 68.266667z" fill="#bfcbd9" p-id="3010"></path><path d="M682.666667 512H324.266667v51.2h358.4zM682.666667 204.8h-51.2v102.4h51.2zM375.466667 204.8h-51.2v102.4h51.2z" fill="#bfcbd9" p-id="3011"></path></svg>